<?xml version="1.0" standalone="no"?>
<!DOCTYPE svg PUBLIC "-//W3C//DTD SVG 20010904//EN"
 "http://www.w3.org/TR/2001/REC-SVG-20010904/DTD/svg10.dtd">
<svg version="1.0" xmlns="http://www.w3.org/2000/svg"
 width="401.000000pt" height="401.000000pt" viewBox="0 0 401.000000 401.000000"
 preserveAspectRatio="xMidYMid meet">
<metadata>
Created by potrace 1.14, written by Peter Selinger 2001-2017
</metadata>
<g transform="translate(0.000000,401.000000) scale(0.100000,-0.100000)"
fill="#000000" stroke="none">
<path d="M1892 3895 c-183 -51 -368 -233 -619 -610 -216 -324 -328 -572 -340
-751 -8 -114 7 -142 170 -321 74 -82 142 -154 151 -162 9 -7 16 -17 16 -21 0
-5 -38 -29 -86 -54 -249 -133 -454 -336 -521 -516 -9 -25 -61 -161 -114 -302
-117 -306 -148 -407 -156 -510 -8 -108 9 -149 96 -230 91 -84 245 -159 374
-183 l37 -7 -1 68 c0 38 -12 278 -27 533 l-27 464 1164 -7 c641 -3 1166 -8
1168 -9 1 -2 -13 -237 -32 -522 -20 -285 -33 -521 -30 -524 12 -11 180 40 270
83 168 79 229 158 228 296 0 128 -14 175 -197 680 -53 146 -105 283 -114 305
-23 54 -159 190 -255 254 -106 71 -287 171 -310 171 -13 0 37 55 145 163 205
202 223 234 216 365 -10 166 -111 396 -303 688 -260 396 -443 591 -610 649
-69 24 -225 29 -293 10z m268 -1356 c70 -27 211 -36 318 -20 133 20 146 2 126
-164 -31 -251 -63 -340 -175 -479 -146 -182 -331 -279 -476 -248 -98 20 -161
58 -259 156 -99 99 -174 205 -212 300 -26 64 -82 318 -82 372 0 18 8 42 19 55
18 23 19 23 87 9 100 -21 223 -16 319 13 110 34 256 36 335 6z"/>
<path d="M910 1208 c0 -50 50 -869 56 -906 l5 -32 1042 2 1042 3 36 475 c20
261 34 478 32 483 -2 4 -501 7 -1109 7 l-1104 0 0 -32z m1115 -434 c-11 -9
-33 -22 -48 -30 -28 -15 -28 -15 -16 8 15 30 28 38 59 38 25 -1 25 -1 5 -16z
m-208 -51 c-3 -10 -5 -2 -5 17 0 19 2 27 5 18 2 -10 2 -26 0 -35z m356 20 c44
-35 56 -83 32 -139 l-16 -38 -84 84 c-47 47 -85 87 -85 91 0 12 45 28 81 28
24 1 47 -8 72 -26z m-153 -55 c6 -24 20 -74 30 -112 11 -39 18 -72 15 -74 -11
-11 -76 11 -106 36 -34 27 -39 45 -31 114 3 22 50 78 68 78 7 0 18 -18 24 -42z"/>
<path d="M956 125 l16 -25 1029 0 c1006 0 1029 0 1039 19 5 11 10 22 10 25 0
3 -475 6 -1055 6 l-1055 0 16 -25z"/>
</g>
</svg>
